<?xml version="1.0" standalone="no"?>
<!DOCTYPE svg PUBLIC "-//W3C//DTD SVG 20010904//EN"
 "http://www.w3.org/TR/2001/REC-SVG-20010904/DTD/svg10.dtd">
<svg version="1.0" xmlns="http://www.w3.org/2000/svg"
 width="80.000000pt" height="80.000000pt" viewBox="0 0 80.000000 80.000000"
 preserveAspectRatio="xMidYMid meet">
<metadata>
Created by potrace 1.11, written by Peter Selinger 2001-2013
</metadata>
<g transform="translate(0.000000,80.000000) scale(0.100000,-0.100000)"
fill="#000000" stroke="none">
<path d="M259 761 c-131 -43 -220 -147 -235 -274 -9 -79 18 -164 83 -254 67
-93 81 -120 89 -172 l7 -41 89 0 90 0 -5 53 c-10 91 -36 144 -105 217 -47 50
-84 112 -89 149 -6 43 23 110 59 135 53 37 134 28 178 -19 l23 -25 -21 -23
c-27 -28 -28 -62 -4 -102 53 -86 163 -152 237 -142 l45 7 0 -51 c0 -40 -5 -55
-25 -74 -13 -14 -36 -25 -50 -25 -14 0 -25 -4 -25 -10 0 -15 41 -12 73 4 26
14 27 14 16 -6 -6 -11 -20 -23 -30 -25 -10 -3 -19 -9 -19 -14 0 -15 27 -10 51
10 22 17 24 28 25 108 1 81 4 92 28 117 14 16 28 44 32 63 11 58 -5 184 -29
233 -21 44 -23 45 -68 45 -40 0 -52 5 -92 42 -25 23 -65 52 -89 64 -60 31
-164 35 -239 10z"/>
</g>
</svg>
